<?xml version="1.0" encoding="UTF-8"?>
<svg id="Layer_1" xmlns="http://www.w3.org/2000/svg" version="1.1" viewBox="0 0 32 32">
  <!-- Generator: Adobe Illustrator 30.1.0, SVG Export Plug-In . SVG Version: 2.1.1 Build 136)  -->
  <defs>
    <style>
      .st0 {
        fill: #888;
      }
    </style>
  </defs>
  <path class="st0" d="M4.94,16c0-2.86,1.57-4.68,4.11-4.68s3.98,1.98,3.98,4.46v.71h-6.14v.29c0,1.38.84,2.36,2.36,2.36,1.1,0,1.84-.52,2.36-1.34l1.1,1.08c-.67,1.08-1.98,1.81-3.65,1.81-2.55,0-4.11-1.82-4.11-4.68ZM6.88,15.12v.12h4.17v-.17c0-1.38-.76-2.29-2-2.29s-2.17.96-2.17,2.34Z"/>
  <path class="st0" d="M14.29,20.48v-8.95h1.88v1.48h.09c.36-.93,1.03-1.69,2.39-1.69,1.21,0,2.22.59,2.65,1.82h.05c.33-1,1.26-1.82,2.7-1.82,1.77,0,2.82,1.27,2.82,3.48v5.68h-1.88v-5.46c0-1.38-.52-2.08-1.65-2.08-.95,0-1.82.5-1.82,1.53v6.01h-1.88v-5.46c0-1.39-.53-2.08-1.64-2.08-.93,0-1.84.5-1.84,1.53v6.01h-1.88Z"/>
</svg>