<?xml version="1.0" encoding="UTF-8"?>
<svg id="Layer_1" xmlns="http://www.w3.org/2000/svg" version="1.1" viewBox="0 0 109.14 33.92">
  <!-- Generator: Adobe Illustrator 30.1.0, SVG Export Plug-In . SVG Version: 2.1.1 Build 136)  -->
  <defs>
    <style>
      .st0 {
        fill: #222;
      }
    </style>
  </defs>
  <polygon class="st0" points="30.04 30.96 0 30.96 2.96 33.92 33 33.92 30.04 30.96"/>
  <polygon class="st0" points="33 3.88 33 33.92 30.04 30.96 30.04 .92 33 3.88"/>
  <path class="st0" d="M63.54.92c2.68,3.23,4.3,7.38,4.3,11.9,0,10.3-8.35,18.65-18.65,18.65-4.53,0-8.67-1.61-11.9-4.3,3.42,4.12,8.58,6.74,14.35,6.74,10.3,0,18.65-8.35,18.65-18.65,0-5.77-2.62-10.93-6.74-14.35Z"/>
  <polygon class="st0" points="90.2 .92 88.77 0 106.48 30.96 70.28 30.96 73.24 33.92 109.14 33.92 90.2 .92"/>
</svg>